<svg width="24" height="24" viewBox="0 0 24 24" fill="none" xmlns="http://www.w3.org/2000/svg">
<path d="M1.41901 0L3.34501 21.6L11.988 24L20.6535 21.597L22.5825 0H1.42051H1.41901ZM19.002 20.223L12.036 22.1535V22.164L12.018 22.158L12 22.164V22.1535L5.03401 20.223L3.38701 1.767H20.649L19.002 20.223V20.223ZM15.252 12.426L14.946 15.861L11.988 16.659L9.03751 15.864L8.84851 13.749H6.18901L6.55951 17.91L11.9985 19.4145L17.421 17.91L18.1485 9.777H8.49301L8.25151 7.0635H18.3885L18.6255 4.4145H5.35501L6.07051 12.426H15.252Z" fill="#F8F8F8"/>
</svg>
