<svg width="40" height="40" viewBox="0 0 40 40" fill="none" xmlns="http://www.w3.org/2000/svg">
<path d="M34.0426 17.3913C34.0426 26.9963 26.4219 34.7826 17.0213 34.7826C7.62069 34.7826 0 26.9963 0 17.3913C0 7.78635 7.62069 0 17.0213 0C26.4219 0 34.0426 7.78635 34.0426 17.3913ZM1.70213 17.3913C1.70213 26.0358 8.56074 33.0435 17.0213 33.0435C25.4818 33.0435 32.3404 26.0358 32.3404 17.3913C32.3404 8.74685 25.4818 1.73913 17.0213 1.73913C8.56074 1.73913 1.70213 8.74685 1.70213 17.3913Z" fill="#06203D"/>
<path d="M40.0001 22.6087C40.0001 32.2136 32.3794 40 22.9788 40C13.5782 40 5.95752 32.2136 5.95752 22.6087C5.95752 13.0037 13.5782 5.21738 22.9788 5.21738C32.3794 5.21738 40.0001 13.0037 40.0001 22.6087ZM7.65965 22.6087C7.65965 31.2531 14.5183 38.2609 22.9788 38.2609C31.4393 38.2609 38.2979 31.2531 38.2979 22.6087C38.2979 13.9642 31.4393 6.95651 22.9788 6.95651C14.5183 6.95651 7.65965 13.9642 7.65965 22.6087Z" fill="#06203D"/>
</svg>
