<svg width="18" height="24" viewBox="0 0 18 24" fill="none" xmlns="http://www.w3.org/2000/svg">
<g clip-path="url(#clip0_4_635)">
<path d="M0.65625 4.49025C0.65625 2.01038 2.66663 0 5.14655 0H12.8513C15.3312 0 17.3416 2.01038 17.3416 4.49025C17.3416 6.06056 16.5355 7.44263 15.3146 8.24517C16.5355 9.04777 17.3416 10.4298 17.3416 12.0001C17.3416 14.48 15.3312 16.4904 12.8513 16.4904H12.7538C11.5912 16.4904 10.5318 16.0485 9.73434 15.3236V19.461C9.73434 21.9739 7.67142 24 5.17073 24C2.697 24 0.65625 21.9958 0.65625 19.5097C0.65625 17.9395 1.46227 16.5575 2.68313 15.7549C1.46217 14.9523 0.65625 13.5703 0.65625 12.0001C0.65625 10.4298 1.46231 9.04777 2.68322 8.24517C1.46236 7.44263 0.65625 6.06056 0.65625 4.49025ZM8.2635 8.98064H5.14655C3.47892 8.98064 2.12709 10.3325 2.12709 12.0001C2.12709 13.6613 3.46852 15.0091 5.12723 15.0195L5.14655 15.0195H8.2635V8.98064ZM9.73434 12.0001C9.73434 13.6677 11.0862 15.0195 12.7538 15.0195H12.8513C14.5189 15.0195 15.8707 13.6677 15.8707 12.0001C15.8707 10.3325 14.5189 8.98064 12.8513 8.98064H12.7538C11.0862 8.98064 9.73434 10.3325 9.73434 12.0001ZM5.14655 16.4904L5.12723 16.4903C3.46852 16.5007 2.12709 17.8485 2.12709 19.5097C2.12709 21.1712 3.49702 22.5292 5.17073 22.5292C6.87145 22.5292 8.2635 21.1493 8.2635 19.461V16.4904H5.14655ZM5.14655 1.47084C3.47892 1.47084 2.12709 2.82272 2.12709 4.49025C2.12709 6.15788 3.47897 7.5097 5.14655 7.5097H8.2635V1.4708H5.14655V1.47084ZM9.73434 7.5097H12.8513C14.5189 7.5097 15.8707 6.15788 15.8707 4.49025C15.8707 2.82267 14.5189 1.47084 12.8513 1.47084H9.73434V7.5097Z" fill="white"/>
</g>
<defs>
<clipPath id="clip0_4_635">
<rect width="18" height="24" fill="white"/>
</clipPath>
</defs>
</svg>
