<svg width="20" height="24" viewBox="0 0 20 24" fill="none" xmlns="http://www.w3.org/2000/svg">
<path d="M2.52984 23.197L1.36547 1.43658L0 1.53033L0.896719 23.197H2.52984ZM11.3817 5.06827C14.4009 5.06827 16.1353 6.717 16.0497 10.0574L12.6022 10.143C12.6664 8.34436 11.8956 8.17308 11.4674 8.17308C11.0605 8.17308 10.3753 8.30156 10.3753 9.26513C10.3753 11.6419 16.2424 11.5134 16.2424 16.3099C16.2424 19.0079 14.1439 20.2497 11.4674 20.2497C8.70511 20.2497 6.28547 19.3076 6.56386 15.1749H10.1826C10.1397 16.8451 10.5038 17.4447 11.4246 17.4447C12.1312 17.4447 12.4523 17.0378 12.4523 16.3527C12.4523 13.9116 6.67092 13.826 6.67092 9.35077C6.67092 6.78127 8.3625 5.06827 11.3817 5.06827ZM19.6875 0L17.8135 0.152906V3.77887L16.2904 2.26266L14.8376 3.96642V0.303094L2.65533 1.24908L3.91345 23.1971L19.6875 24V0Z" fill="white"/>
</svg>
